:SAMPLES-PER-SECOND 30
:FRAME-RANGE 1-4244
:FULLY-SPECIFIED
:DEGREES
1459
root  54.2672 35.6165 -7.68628 -15.875 41.3391 -11.2474
RightUpLeg  3.71352 -15.5815 -10.8416
RightLeg  38.5194 -6.39793 -5.72399
RightFoot  -25.0221 2.41237 21.3114
RightToes  -3.31784e-009 0 -3.6325e-017
Spine  16.8323 -2.73144 1.96963
Spine1  -5.57328 -1.94289 -1.57237
HEad  0.903481 -16.041 9.50087
LeftShoulder1  2.72221 -7.01212 -19.3998
LeftArm  -1.9261 -48.2227 -61.8481
LeftForeArm  -11.1022 -21.0816 -6.41376
LeftHand  -0.0200042 4.56309 -0.785939
RightShoulder  -4.36614 30.8626 -23.9734
RightArm  -71.0996 47.5593 -8.83384
RightForeArm  46.5615 13.3734 1.11197
RightHand  -0.594783 5.59142 -6.5937
LeftUpLeg  -31.0043 17.4474 21.3776
LeftLeg  52.1231 -10.2317 -13.3807
LeftFoot  -0.104235 1.39963 -14.1634
LeftToes  1.0277e-010 -6.71454e-011 3.04227e-011
1460
root  54.9545 35.7779 -8.24072 -14.196 38.0509 -8.86134
RightUpLeg  3.17317 -12.3119 -13.0877
RightLeg  36.6929 -5.75395 -4.86274
RightFoot  -23.3811 2.1748 21.8934
RightToes  -3.31784e-009 0 -3.6325e-017
Spine  15.9736 -2.71153 0.916846
Spine1  -5.57721 -1.93987 -1.65821
HEad  1.57768 -14.2692 8.86598
LeftShoulder1  2.63678 -6.81707 -19.0353
LeftArm  -3.72224 -48.5109 -59.3178
LeftForeArm  -9.8274 -22.4861 -5.68549
LeftHand  -0.0237327 4.25464 0.0633797
RightShoulder  -3.56192 28.7883 -22.134
RightArm  -71.0204 45.2114 -8.90229
RightForeArm  40.969 14.1102 1.59325
RightHand  -0.502438 5.07779 -5.86784
LeftUpLeg  -24.2315 8.67843 23.8145
LeftLeg  46.0867 -12.0513 -12.7179
LeftFoot  -7.94301 0.542618 -16.5961
LeftToes  1.0277e-010 -6.71454e-011 3.04227e-011
1461
root  55.6641 36.014 -8.72326 -12.4908 34.4223 -6.40268
RightUpLeg  2.80422 -9.53571 -15.7374
RightLeg  33.8626 -4.52084 -3.51491
RightFoot  -21.562 1.93578 23.0077
RightToes  -3.31784e-009 0 -3.6325e-017
Spine  15.3048 -2.14189 -0.381057
Spine1  -5.64954 -1.54984 -2.62433
HEad  1.90634 -13.2628 7.70872
LeftShoulder1  2.50644 -6.55168 -18.3641
LeftArm  -6.09775 -49.2806 -57.7871
LeftForeArm  -7.20093 -23.5529 -5.41013
LeftHand  -0.0338468 3.74329 1.00926
RightShoulder  -2.93657 26.4381 -20.7899
RightArm  -70.5751 42.9257 -9.55994
RightForeArm  35.126 12.8322 1.63694
RightHand  -0.361656 4.60982 -4.48449
LeftUpLeg  -18.7981 2.41989 22.7216
LeftLeg  41.0561 -13.939 -12.3293
LeftFoot  -16.8887 -0.882981 -20.1161
LeftToes  1.0277e-010 -6.71454e-011 3.04227e-011
1462
root  56.43 35.8106 -9.34751 -10.8491 31.2325 -4.5179
RightUpLeg  0.201982 -6.85075 -18.2563
RightLeg  34.3374 -3.51939 -2.84281
RightFoot  -20.7678 1.86027 23.9605
RightToes  -3.31784e-009 0 -3.6325e-017
Spine  15.99 -1.63266 -1.28427
Spine1  -7.75698 -1.42132 -0.900103
HEad  1.43002 -12.3597 7.26943
LeftShoulder1  2.33501 -6.23311 -17.3404
LeftArm  -9.10595 -50.524 -57.0255
LeftForeArm  -3.0488 -24.9158 -5.48819
LeftHand  -0.0507236 3.12934 1.80082
RightShoulder  -2.43847 24.009 -19.7492
RightArm  -69.3139 40.1173 -9.92739
RightForeArm  26.6564 10.5125 1.61494
RightHand  -0.279456 4.96232 -3.43219
LeftUpLeg  -19.8499 3.19088 19.7313
LeftLeg  43.826 -10.3282 -10.0759
LeftFoot  -16.1228 -0.607689 -16.7536
LeftToes  1.0277e-010 -6.71454e-011 3.04227e-011
1463
root  56.9855 35.9624 -9.88411 -9.32478 29.3572 -2.48993
RightUpLeg  -0.944346 -4.49625 -20.4438
RightLeg  32.5445 -4.0344 -3.02082
RightFoot  -18.6576 1.40449 23.6506
RightToes  -3.31784e-009 0 -3.6325e-017
Spine  16.4871 -1.4401 -2.629
Spine1  -8.46782 -1.52369 -0.79097
HEad  -0.109609 -12.1312 7.50627
LeftShoulder1  2.16066 -6.13167 -15.6452
LeftArm  -11.762 -52.3081 -55.7931
LeftForeArm  0.235178 -26.9512 -5.78705
LeftHand  -0.0744454 2.3667 2.42682
RightShoulder  -1.78633 21.3934 -17.8559
RightArm  -67.4701 37.2792 -9.9952
RightForeArm  19.7146 8.4553 1.51648
RightHand  -0.254927 4.14657 -3.37588
LeftUpLeg  -19.6297 4.97486 16.6939
LeftLeg  43.362 -9.24601 -8.85905
LeftFoot  -15.2832 -0.436903 -15.2678
LeftToes  1.0277e-010 -6.71454e-011 3.04227e-011
1464
root  57.51 36.2065 -10.4071 -8.49237 26.6213 -1.94121
RightUpLeg  -1.73117 -1.297 -20.9124
RightLeg  29.1171 -5.22361 -3.37769
RightFoot  -15.5482 0.789003 24.0494
RightToes  -3.31784e-009 0 -3.6325e-017
Spine  16.5784 -1.37612 -1.78723
Spine1  -8.13516 -1.3102 -2.06658
HEad  -1.78484 -12.2103 7.48238
LeftShoulder1  2.06407 -6.0197 -14.8238
LeftArm  -14.8719 -54.1705 -52.8146
LeftForeArm  4.34814 -29.9186 -6.2786
LeftHand  -0.104464 1.94383 3.23056
RightShoulder  -1.36346 20.0357 -16.2903
RightArm  -65.0271 34.0923 -9.96309
RightForeArm  13.18 6.15017 1.40481
RightHand  -0.161462 3.53315 -2.35095
LeftUpLeg  -19.0816 7.62226 15.3972
LeftLeg  42.4772 -8.78557 -8.14542
LeftFoot  -14.739 -0.337719 -14.2893
LeftToes  1.0277e-010 -6.71454e-011 3.04227e-011
1465
root  57.9671 36.4415 -10.935 -7.6692 24.4727 -1.37462
RightUpLeg  -2.54673 -0.311873 -21.9008
RightLeg  26.0002 -5.33506 -3.05399
RightFoot  -12.4533 0.137027 22.6391
RightToes  -3.31784e-009 0 -3.6325e-017
Spine  17.0668 -1.58644 -1.22789
Spine1  -8.15616 -1.48897 -1.92497
HEad  -3.04217 -12.5961 7.70136
LeftShoulder1  1.90773 -5.68776 -13.8152
LeftArm  -18.2259 -55.8907 -49.5929
LeftForeArm  7.29656 -32.7913 -6.84349
LeftHand  -0.120098 1.95228 3.77622
RightShoulder  -0.923459 18.9938 -14.369
RightArm  -61.063 31.2277 -9.34839
RightForeArm  5.7836 4.94289 2.2819
RightHand  -0.135718 3.42826 -2.03274
LeftUpLeg  -18.8696 9.31353 13.9409
LeftLeg  41.3666 -8.04996 -7.15453
LeftFoot  -14.0269 -0.239725 -13.7434
LeftToes  1.0277e-010 -6.71454e-011 3.04227e-011
1466
root  58.3206 36.7522 -11.399 -6.34113 21.9598 -0.883255
RightUpLeg  -4.18233 -1.31631 -22.796
RightLeg  22.9022 -3.92203 -2.03714
RightFoot  -8.98869 -0.467748 19.6006
RightToes  -3.31784e-009 0 -3.6325e-017
Spine  17.3365 -1.44198 -0.770796
Spine1  -8.58031 -1.38783 -1.28195
HEad  -3.96382 -13.1941 7.23753
LeftShoulder1  1.74514 -5.39449 -12.5546
LeftArm  -21.7583 -57.3331 -46.8705
LeftForeArm  8.93247 -34.7381 -7.27063
LeftHand  -0.119291 1.88502 3.68646
RightShoulder  -0.448506 17.6518 -12.1027
RightArm  -57.9214 29.9922 -8.91414
RightForeArm  4.06873 3.25144 2.77129
RightHand  -0.0403595 2.95128 -0.785904
LeftUpLeg  -18.798 11.6014 12.7005
LeftLeg  39.4037 -7.48558 -6.18008
LeftFoot  -12.958 -0.111812 -13.3566
LeftToes  1.0277e-010 -6.71454e-011 3.04227e-011
1467
root  58.5515 37.0416 -11.8404 -4.67984 18.6427 -0.130585
RightUpLeg  -6.39964 -4.91604 -23.7187
RightLeg  19.7892 -1.78553 -0.92855
RightFoot  -5.81776 -0.956776 18.8474
RightToes  -3.31784e-009 0 -3.6325e-017
Spine  17.2546 -0.663474 -0.708275
Spine1  -8.65438 -0.733006 -0.375717
HEad  -4.42336 -13.7344 6.75769
LeftShoulder1  1.62882 -5.25807 -11.4231
LeftArm  -25.6991 -59.0864 -44.0371
LeftForeArm  9.86564 -36.0218 -7.57333
LeftHand  -0.117333 2.15205 3.87642
RightShoulder  -0.137931 17.9041 -10.4121
RightArm  -54.8656 27.0494 -8.45294
RightForeArm  0.341584 3.29458 3.62272
RightHand  0.0204732 2.9606 0.0606059
LeftUpLeg  -18.7742 14.304 11.3876
LeftLeg  37.1514 -6.66585 -5.03288
LeftFoot  -11.6006 0.0401522 -12.8176
LeftToes  1.0277e-010 -6.71454e-011 3.04227e-011
1468
root  58.6978 37.2911 -12.2872 -3.04547 14.3636 0.794312
RightUpLeg  -9.17255 -9.93422 -23.8556
RightLeg  17.4988 -0.823122 -0.805605
RightFoot  -4.50546 -1.23096 19.9046
RightToes  -3.31784e-009 0 -3.6325e-017
Spine  17.9998 0.153325 -0.154173
Spine1  -9.49257 0.131042 -0.258386
HEad  -5.19599 -13.3145 6.07236
LeftShoulder1  1.43609 -4.92025 -9.7077
LeftArm  -31.0337 -60.287 -39.8504
LeftForeArm  10.6508 -36.7162 -7.72447
LeftHand  -0.111664 2.46707 4.01003
RightShoulder  0.286116 18.3249 -8.17296
RightArm  -53.1124 25.5636 -8.17103
RightForeArm  -1.68969 4.04254 4.34781
RightHand  -0.0114916 2.43023 -0.367525
LeftUpLeg  -18.5971 17.5598 10.1098
LeftLeg  34.846 -5.57857 -3.80657
LeftFoot  -10.4131 0.166362 -12.8192
LeftToes  1.0277e-010 -6.71454e-011 3.04227e-011
1469
root  58.7944 37.5655 -12.7344 -1.66039 9.79889 1.57208
RightUpLeg  -12.2707 -15.1756 -23.0509
RightLeg  17.1066 -4.89922 -2.08363
RightFoot  -3.9746 -1.23426 18.5965
RightToes  -3.31784e-009 0 -3.6325e-017
Spine  18.0467 0.315279 1.13154
Spine1  -8.7958 0.543846 -0.785765
HEad  -6.30294 -11.3019 5.26887
LeftShoulder1  1.2221 -4.61711 -7.47223
LeftArm  -39.422 -59.7255 -32.0259
LeftForeArm  10.7206 -37.7963 -8.03718
LeftHand  -0.0861834 3.2869 3.93921
RightShoulder  0.763856 19.8596 -5.93412
RightArm  -53.8436 25.3623 -7.75537
RightForeArm  -2.81584 5.17809 4.37047
RightHand  -0.054817 2.55575 -1.00545
LeftUpLeg  -18.1465 21.1863 9.02426
LeftLeg  32.1579 -4.53235 -2.7163
LeftFoot  -9.14666 0.307594 -13.1607
LeftToes  1.0277e-010 -6.71454e-011 3.04227e-011
1470
root  58.8239 37.785 -13.1092 -0.500244 4.99731 2.68001
RightUpLeg  -16.1005 -22.8259 -21.5323
RightLeg  19.7371 -12.5935 -5.16655
RightFoot  -4.40602 -0.976388 15.5264
RightToes  -3.31784e-009 0 -3.6325e-017
Spine  18.5981 0.60581 1.60625
Spine1  -8.49153 0.855952 -0.167793
HEad  -7.10876 -8.55748 3.39644
LeftShoulder1  1.09376 -4.22377 -6.46659
LeftArm  -47.4233 -57.3757 -22.5005
LeftForeArm  9.02931 -38.9121 -8.48233
LeftHand  -0.0642432 3.73473 3.27194
RightShoulder  1.18763 21.6571 -4.28358
RightArm  -54.8879 26.1479 -6.96433
RightForeArm  -3.5619 6.64359 4.52346
RightHand  -0.132077 2.42807 -2.1605
LeftUpLeg  -17.4426 24.3609 7.75969
LeftLeg  29.5419 -3.00821 -1.49762
LeftFoot  -7.88364 0.458402 -13.5761
LeftToes  1.0277e-010 -6.71454e-011 3.04227e-011
1471
root  58.7803 37.8828 -13.2925 0.440796 -0.543152 4.37794
RightUpLeg  -20.7651 -30.8935 -19.2635
RightLeg  25.2352 -17.835 -9.15015
RightFoot  -5.00068 -0.871013 15.0269
RightToes  -3.31784e-009 0 -3.6325e-017
Spine  18.5768 0.833119 1.92338
Spine1  -7.6999 1.18881 -0.353593
HEad  -7.40401 -5.05055 1.41992
LeftShoulder1  0.957972 -3.52151 -5.88207
LeftArm  -53.201 -53.377 -12.3396
LeftForeArm  6.41817 -38.9779 -8.66664
LeftHand  -0.0405706 4.43884 2.25841
RightShoulder  1.70229 23.7823 -2.56574
RightArm  -55.3475 27.7028 -5.34158
RightForeArm  -4.07618 8.0435 4.92517
RightHand  -0.187935 2.45023 -2.98412
LeftUpLeg  -16.4666 27.496 6.24335
LeftLeg  27.5799 -0.908723 -0.171383
LeftFoot  -7.34059 0.550221 -14.4358
LeftToes  1.0277e-010 -6.71454e-011 3.04227e-011
